# This file uses centimeters as units for non-parametric coordinates.

mtllib leg_l.mtl
g default
v 1.706780 0.436184 -1.674890
v 1.627980 1.264260 -0.114262
v 2.041290 0.901205 -1.586890
v 1.548340 1.345160 -0.037105
v 1.368930 2.276880 -0.036417
v 0.800854 1.318990 -0.079057
v 0.742141 1.408590 -0.066060
v 1.345170 2.263550 0.387988
v 0.494089 0.962637 -1.829390
v 0.787400 2.321070 -0.072722
v 0.416868 0.433710 -1.518060
v 1.960280 0.085491 -1.976240
v 0.073152 -0.010450 -1.639770
v 0.746195 2.306070 0.347413
v 4.238160 -0.027651 1.906640
v 2.848810 -0.022098 0.306048
v 0.823040 0.005901 3.094450
v 0.668076 0.039523 0.821441
v 1.704550 2.294920 0.290571
v 1.753200 2.318950 -0.077835
v 1.719970 2.120320 0.092875
v 1.737770 2.493540 0.119861
v 0.324790 2.365160 0.174738
v 0.373444 2.389190 -0.193668
v 0.358015 2.563780 0.004027
v 0.340217 2.190560 -0.022958
v 1.667000 2.346920 -0.349115
v 1.634610 2.019870 -0.241899
v 1.665000 2.656990 -0.195834
v 1.586790 1.867420 0.063011
v 1.629760 2.768430 0.128156
v 1.551550 1.978860 0.386999
v 1.581940 2.615970 0.433065
v 1.549540 2.288920 0.540282
v 0.563782 2.403090 -0.441734
v 0.561772 2.713150 -0.288453
v 0.531391 2.076040 -0.334517
v 0.483569 1.923580 -0.029608
v 0.526537 2.824590 0.035538
v 0.448334 2.035020 0.294384
v 0.478718 2.672130 0.340447
v 0.446325 2.345080 0.447664
v 3.344720 0.469076 1.317480
v 4.289190 1.253670 2.309170
v 2.243200 0.896725 2.716020
v 1.026990 0.534662 2.101010
v 2.482310 0.715050 0.645155
v 2.259430 1.353190 0.004947
v 1.069170 0.647644 1.228420
v 0.866360 1.222740 0.347334
v 1.000950 1.263190 3.416680
vt 0.667475 0.338331
vt 0.596342 0.354683
vt 0.670438 0.357970
vt 0.593810 0.357871
vt 0.583340 0.395277
vt 0.561366 0.338999
vt 0.560051 0.342557
vt 0.567945 0.390475
vt 0.681083 0.398103
vt 0.589725 0.417856
vt 0.690553 0.356580
vt 0.699182 0.389758
vt 0.707242 0.340370
vt 0.720000 0.395542
vt 0.537755 0.267349
vt 0.520851 0.277125
vt 0.534333 0.369438
vt 0.546036 0.380157
vt 0.363616 0.078001
vt 0.373275 0.098107
vt 0.386339 0.067939
vt 0.392614 0.089710
vt 0.387650 0.126423
vt 0.403368 0.119781
vt 0.983996 0.979453
vt 0.997906 0.980245
vt 0.991347 0.972894
vt 0.990555 0.986804
vt 0.997906 0.980245
vt 0.983996 0.979453
vt 0.986318 0.734836
vt 0.978420 0.746314
vt 0.988108 0.744524
vt 0.976631 0.736626
vt 0.978420 0.746314
vt 0.986318 0.734836
vt 0.874189 0.255485
vt 0.935350 0.253443
vt 0.873827 0.244639
vt 0.873827 0.244639
vt 0.935350 0.253443
vt 0.934988 0.242597
vt 0.934626 0.231751
vt 0.873827 0.244639
vt 0.934988 0.242597
vt 0.873465 0.233793
vt 0.873827 0.244639
vt 0.934626 0.231751
vt 0.934626 0.231751
vt 0.934264 0.220905
vt 0.873465 0.233793
vt 0.873465 0.233793
vt 0.934264 0.220905
vt 0.873103 0.222947
vt 0.934264 0.220905
vt 0.872741 0.212101
vt 0.873103 0.222947
vt 0.933902 0.210059
vt 0.872741 0.212101
vt 0.934264 0.220905
vt 0.655743 0.545504
vt 0.651501 0.533351
vt 0.650150 0.557097
vt 0.639911 0.527758
vt 0.650150 0.557097
vt 0.651501 0.533351
vt 0.638000 0.561339
vt 0.650150 0.557097
vt 0.639911 0.527758
vt 0.627762 0.532000
vt 0.638000 0.561339
vt 0.639911 0.527758
vt 0.626410 0.555746
vt 0.638000 0.561339
vt 0.627762 0.532000
vt 0.626410 0.555746
vt 0.627762 0.532000
vt 0.622169 0.543593
vt 0.534281 0.417464
vt 0.546584 0.425571
vt 0.531313 0.403032
vt 0.531313 0.403032
vt 0.546584 0.425571
vt 0.539417 0.390729
vt 0.539417 0.390729
vt 0.546584 0.425571
vt 0.561013 0.422603
vt 0.539417 0.390729
vt 0.561013 0.422603
vt 0.553847 0.387761
vt 0.553847 0.387761
vt 0.561013 0.422603
vt 0.569118 0.410300
vt 0.553847 0.387761
vt 0.569118 0.410300
vt 0.566149 0.395868
vt 0.720297 0.831916
vt 0.764718 0.832192
vt 0.720377 0.819044
vt 0.720377 0.819044
vt 0.764718 0.832192
vt 0.764797 0.819320
vt 0.720377 0.819044
vt 0.764797 0.819320
vt 0.720456 0.806171
vt 0.720456 0.806171
vt 0.764797 0.819320
vt 0.764876 0.806448
vt 0.764876 0.806448
vt 0.764956 0.793576
vt 0.720456 0.806171
vt 0.720456 0.806171
vt 0.764956 0.793576
vt 0.720536 0.793298
vt 0.764956 0.793576
vt 0.765037 0.780703
vt 0.720536 0.793298
vt 0.720536 0.793298
vt 0.765037 0.780703
vt 0.720617 0.780424
vt 0.765037 0.780703
vt 0.765119 0.767830
vt 0.720617 0.780424
vt 0.720617 0.780424
vt 0.765119 0.767830
vt 0.720699 0.767551
vt 0.765119 0.767830
vt 0.765201 0.754958
vt 0.720699 0.767551
vt 0.720699 0.767551
vt 0.765201 0.754958
vt 0.720781 0.754678
vt 0.720781 0.754678
vt 0.765201 0.754958
vt 0.720862 0.741805
vt 0.720862 0.741805
vt 0.765201 0.754958
vt 0.765282 0.742085
vt 0.720862 0.741805
vt 0.765282 0.742085
vt 0.720942 0.728933
vt 0.720942 0.728933
vt 0.765282 0.742085
vt 0.765363 0.729213
vt 0.314486 0.285497
vt 0.297738 0.313765
vt 0.327386 0.354457
vt 0.303181 0.271905
vt 0.252335 0.273118
vt 0.229443 0.315891
vt 0.295207 0.340961
vt 0.291573 0.392511
vt 0.234120 0.342918
vt 0.240406 0.394395
vt 0.368438 0.449984
vt 0.347698 0.444703
vt 0.287115 0.400756
vt 0.167856 0.456398
vt 0.187014 0.452540
vt 0.203779 0.358582
vt 0.245654 0.402232
vt 0.223295 0.273998
vt 0.207532 0.288091
vt 0.303482 0.249050
vt 0.223814 0.249560
vn -0.284362 -0.334361 0.898522
vn -0.499948 -0.823042 -0.269545
vn -0.875893 -0.363678 0.317097
vn -0.875893 -0.363678 0.317097
vn -0.499948 -0.823042 -0.269545
vn -0.650046 0.064052 -0.757190
vn -0.650046 0.064052 -0.757190
vn -0.710787 -0.632455 0.307868
vn -0.875893 -0.363678 0.317097
vn -0.650046 0.064052 -0.757190
vn 0.535234 0.093796 -0.839480
vn 0.727556 0.236365 -0.644045
vn 0.727556 0.236365 -0.644045
vn -0.384145 0.307488 -0.870565
vn -0.650046 0.064052 -0.757190
vn -0.384145 0.307488 -0.870565
vn -0.710787 -0.632455 0.307868
vn -0.650046 0.064052 -0.757190
vn -0.499948 -0.823042 -0.269545
vn 0.535234 0.093796 -0.839480
vn -0.650046 0.064052 -0.757190
vn -0.710787 -0.632455 0.307868
vn 0.467734 -0.380436 0.797805
vn -0.875893 -0.363678 0.317097
vn 0.872513 -0.405950 0.271894
vn 0.467734 -0.380436 0.797805
vn -0.710787 -0.632455 0.307868
vn -0.875893 -0.363678 0.317097
vn 0.467734 -0.380436 0.797805
vn -0.284362 -0.334361 0.898522
vn -0.284362 -0.334361 0.898522
vn 0.467734 -0.380436 0.797805
vn 0.877316 -0.214258 0.429429
vn -0.284362 -0.334361 0.898522
vn 0.877316 -0.214258 0.429429
vn -0.367732 -0.018974 0.929738
vn -0.367732 -0.018974 0.929738
vn 0.877316 -0.214258 0.429429
vn 0.919118 -0.128957 0.372279
vn 0.877316 -0.214258 0.429429
vn 0.727556 0.236365 -0.644045
vn 0.535234 0.093796 -0.839480
vn 0.467734 -0.380436 0.797805
vn 0.727556 0.236365 -0.644045
vn 0.877316 -0.214258 0.429429
vn 0.872513 -0.405950 0.271894
vn 0.727556 0.236365 -0.644045
vn 0.467734 -0.380436 0.797805
vn 0.773685 0.262221 -0.576759
vn 0.727556 0.236365 -0.644045
vn 0.872513 -0.405950 0.271894
vn 0.773685 0.262221 -0.576759
vn -0.384145 0.307488 -0.870565
vn 0.727556 0.236365 -0.644045
vn -0.898999 0.346117 -0.268334
vn -0.847559 0.345669 0.402686
vn 0.425102 0.642328 -0.637733
vn 0.425102 0.642328 -0.637733
vn -0.847559 0.345669 0.402686
vn 0.912239 0.370664 -0.174438
vn -0.847559 0.345669 0.402686
vn -0.367732 -0.018974 0.929738
vn 0.912239 0.370664 -0.174438
vn 0.912239 0.370664 -0.174438
vn -0.367732 -0.018974 0.929738
vn 0.919118 -0.128957 0.372279
vn -0.489353 0.085730 -0.867862
vn -0.876332 0.007235 0.481654
vn -0.393414 0.869183 0.299576
vn -0.472101 -0.863804 0.175964
vn -0.876332 0.007235 0.481654
vn -0.489353 0.085730 -0.867862
vn 0.876332 -0.007230 -0.481653
vn 0.489352 -0.085726 0.867863
vn 0.393416 -0.869183 -0.299576
vn 0.472101 0.863804 -0.175962
vn 0.489352 -0.085726 0.867863
vn 0.876332 -0.007230 -0.481653
vn -0.393414 0.869183 0.299576
vn 0.472101 0.863804 -0.175962
vn -0.489353 0.085730 -0.867862
vn -0.489353 0.085730 -0.867862
vn 0.472101 0.863804 -0.175962
vn 0.876332 -0.007230 -0.481653
vn 0.393416 -0.869183 -0.299576
vn -0.489353 0.085730 -0.867862
vn 0.876332 -0.007230 -0.481653
vn -0.472101 -0.863804 0.175964
vn -0.489353 0.085730 -0.867862
vn 0.393416 -0.869183 -0.299576
vn 0.393416 -0.869183 -0.299576
vn 0.489352 -0.085726 0.867863
vn -0.472101 -0.863804 0.175964
vn -0.472101 -0.863804 0.175964
vn 0.489352 -0.085726 0.867863
vn -0.876332 0.007235 0.481654
vn 0.489352 -0.085726 0.867863
vn -0.393414 0.869183 0.299576
vn -0.876332 0.007235 0.481654
vn 0.472101 0.863804 -0.175962
vn -0.393414 0.869183 0.299576
vn 0.489352 -0.085726 0.867863
vn -0.557788 -0.033242 0.829317
vn -0.620377 0.484583 0.616694
vn -0.804812 -0.412132 0.427112
vn -0.703567 0.708981 0.048365
vn -0.804812 -0.412132 0.427112
vn -0.620377 0.484583 0.616694
vn -0.766294 -0.640706 -0.047854
vn -0.804812 -0.412132 0.427112
vn -0.703567 0.708981 0.048365
vn -0.654590 0.601179 -0.458362
vn -0.766294 -0.640706 -0.047854
vn -0.703567 0.708981 0.048365
vn -0.555688 -0.572514 -0.602859
vn -0.766294 -0.640706 -0.047854
vn -0.654590 0.601179 -0.458362
vn -0.555688 -0.572514 -0.602859
vn -0.654590 0.601179 -0.458362
vn -0.172641 0.079096 -0.981804
vn 0.172642 -0.079095 0.981804
vn 0.654594 -0.601177 0.458358
vn 0.555689 0.572518 0.602854
vn 0.555689 0.572518 0.602854
vn 0.654594 -0.601177 0.458358
vn 0.766293 0.640707 0.047852
vn 0.766293 0.640707 0.047852
vn 0.654594 -0.601177 0.458358
vn 0.703568 -0.708980 -0.048368
vn 0.766293 0.640707 0.047852
vn 0.703568 -0.708980 -0.048368
vn 0.804810 0.412134 -0.427114
vn 0.804810 0.412134 -0.427114
vn 0.703568 -0.708980 -0.048368
vn 0.620377 -0.484581 -0.616695
vn 0.804810 0.412134 -0.427114
vn 0.620377 -0.484581 -0.616695
vn 0.557786 0.033241 -0.829319
vn -0.703567 0.708981 0.048365
vn 0.766293 0.640707 0.047852
vn -0.654590 0.601179 -0.458362
vn -0.654590 0.601179 -0.458362
vn 0.766293 0.640707 0.047852
vn 0.804810 0.412134 -0.427114
vn -0.654590 0.601179 -0.458362
vn 0.804810 0.412134 -0.427114
vn -0.172641 0.079096 -0.981804
vn -0.172641 0.079096 -0.981804
vn 0.804810 0.412134 -0.427114
vn 0.557786 0.033241 -0.829319
vn 0.557786 0.033241 -0.829319
vn 0.620377 -0.484581 -0.616695
vn -0.172641 0.079096 -0.981804
vn -0.172641 0.079096 -0.981804
vn 0.620377 -0.484581 -0.616695
vn -0.555688 -0.572514 -0.602859
vn 0.620377 -0.484581 -0.616695
vn 0.703568 -0.708980 -0.048368
vn -0.555688 -0.572514 -0.602859
vn -0.555688 -0.572514 -0.602859
vn 0.703568 -0.708980 -0.048368
vn -0.766294 -0.640706 -0.047854
vn 0.703568 -0.708980 -0.048368
vn 0.654594 -0.601177 0.458358
vn -0.766294 -0.640706 -0.047854
vn -0.766294 -0.640706 -0.047854
vn 0.654594 -0.601177 0.458358
vn -0.804812 -0.412132 0.427112
vn 0.654594 -0.601177 0.458358
vn 0.172642 -0.079095 0.981804
vn -0.804812 -0.412132 0.427112
vn -0.804812 -0.412132 0.427112
vn 0.172642 -0.079095 0.981804
vn -0.557788 -0.033242 0.829317
vn -0.557788 -0.033242 0.829317
vn 0.172642 -0.079095 0.981804
vn -0.620377 0.484583 0.616694
vn -0.620377 0.484583 0.616694
vn 0.172642 -0.079095 0.981804
vn 0.555689 0.572518 0.602854
vn -0.620377 0.484583 0.616694
vn 0.555689 0.572518 0.602854
vn -0.703567 0.708981 0.048365
vn -0.703567 0.708981 0.048365
vn 0.555689 0.572518 0.602854
vn 0.766293 0.640707 0.047852
vn -0.898999 0.346117 -0.268334
vn -0.327488 -0.805241 0.494307
vn -0.847559 0.345669 0.402686
vn -0.898999 0.346117 -0.268334
vn -0.597812 -0.752361 0.276719
vn -0.327488 -0.805241 0.494307
vn -0.327488 -0.805241 0.494307
vn -0.597812 -0.752361 0.276719
vn -0.246497 -0.782044 -0.572404
vn -0.327488 -0.805241 0.494307
vn -0.246497 -0.782044 -0.572404
vn 0.478948 -0.873227 0.089909
vn -0.327488 -0.805241 0.494307
vn 0.478948 -0.873227 0.089909
vn -0.378580 -0.900379 -0.214464
vn -0.327488 -0.805241 0.494307
vn -0.378580 -0.900379 -0.214464
vn -0.847559 0.345669 0.402686
vn -0.378580 -0.900379 -0.214464
vn -0.461652 -0.875203 0.144558
vn -0.847559 0.345669 0.402686
vn -0.378580 -0.900379 -0.214464
vn 0.478948 -0.873227 0.089909
vn 0.469640 -0.820153 -0.326784
vn 0.469640 -0.820153 -0.326784
vn 0.537112 -0.778203 -0.325441
vn -0.378580 -0.900379 -0.214464
vn -0.378580 -0.900379 -0.214464
vn 0.537112 -0.778203 -0.325441
vn -0.461652 -0.875203 0.144558
vn -0.847559 0.345669 0.402686
vn -0.461652 -0.875203 0.144558
vn -0.367732 -0.018974 0.929738
vn -0.367732 -0.018974 0.929738
vn -0.461652 -0.875203 0.144558
vn -0.284362 -0.334361 0.898522
vn -0.284362 -0.334361 0.898522
vn -0.461652 -0.875203 0.144558
vn -0.499948 -0.823042 -0.269545
vn 0.537112 -0.778203 -0.325441
vn -0.499948 -0.823042 -0.269545
vn -0.461652 -0.875203 0.144558
vn 0.919118 -0.128957 0.372279
vn 0.877316 -0.214258 0.429429
vn 0.537112 -0.778203 -0.325441
vn 0.537112 -0.778203 -0.325441
vn 0.912239 0.370664 -0.174438
vn 0.919118 -0.128957 0.372279
vn 0.469640 -0.820153 -0.326784
vn 0.912239 0.370664 -0.174438
vn 0.537112 -0.778203 -0.325441
vn 0.535234 0.093796 -0.839480
vn -0.499948 -0.823042 -0.269545
vn 0.537112 -0.778203 -0.325441
vn 0.537112 -0.778203 -0.325441
vn 0.877316 -0.214258 0.429429
vn 0.535234 0.093796 -0.839480
vn 0.469640 -0.820153 -0.326784
vn 0.478948 -0.873227 0.089909
vn 0.912239 0.370664 -0.174438
vn -0.246497 -0.782044 -0.572404
vn 0.587607 -0.761849 -0.272588
vn 0.478948 -0.873227 0.089909
vn 0.478948 -0.873227 0.089909
vn 0.587607 -0.761849 -0.272588
vn 0.425102 0.642328 -0.637733
vn 0.478948 -0.873227 0.089909
vn 0.425102 0.642328 -0.637733
vn 0.912239 0.370664 -0.174438
vn -0.246497 -0.782044 -0.572404
vn -0.898999 0.346117 -0.268334
vn 0.425102 0.642328 -0.637733
vn -0.246497 -0.782044 -0.572404
vn -0.597812 -0.752361 0.276719
vn -0.898999 0.346117 -0.268334
vn -0.246497 -0.782044 -0.572404
vn 0.425102 0.642328 -0.637733
vn 0.587607 -0.761849 -0.272588
s off
g all:transformblitzcrank_transformblitzcrank
usemtl blinn1SG
f 1/1/1 2/2/2 3/3/3
f 3/3/4 2/2/5 4/4/6
f 4/4/7 5/5/8 3/3/9
f 4/4/10 6/6/11 7/7/12
f 7/7/13 8/8/14 4/4/15
f 8/8/16 5/5/17 4/4/18
f 2/2/19 6/6/20 4/4/21
f 5/5/22 9/9/23 3/3/24
f 10/10/25 9/9/26 5/5/27
f 3/3/28 9/9/29 1/11/30
f 1/11/31 9/9/32 11/12/33
f 1/11/34 11/12/35 12/13/36
f 12/13/37 11/12/38 13/14/39
f 11/15/40 7/7/41 6/6/42
f 9/16/43 7/7/44 11/15/45
f 10/17/46 7/7/47 9/16/48
f 14/18/49 7/7/50 10/17/51
f 14/18/52 8/8/53 7/7/54
f 15/19/55 16/20/56 17/21/57
f 17/21/58 16/20/59 18/22/60
f 16/20/61 12/23/62 18/22/63
f 18/22/64 12/23/65 13/24/66
f 19/25/67 20/26/68 21/27/69
f 22/28/70 20/29/71 19/30/72
f 23/31/73 24/32/74 25/33/75
f 26/34/76 24/35/77 23/36/78
f 21/37/79 26/38/80 19/39/81
f 19/40/82 26/41/83 23/42/84
f 25/43/85 19/44/86 23/45/87
f 22/46/88 19/47/89 25/48/90
f 25/49/91 24/50/92 22/51/93
f 22/52/94 24/53/95 20/54/96
f 24/55/97 21/56/98 20/57/99
f 26/58/100 21/59/101 24/60/102
f 27/61/103 28/62/104 29/63/105
f 30/64/106 29/65/107 28/66/108
f 31/67/109 29/68/110 30/69/111
f 32/70/112 31/71/113 30/72/114
f 33/73/115 31/74/116 32/75/117
f 33/76/118 32/77/119 34/78/120
f 35/79/121 36/80/122 37/81/123
f 37/82/124 36/83/125 38/84/126
f 38/85/127 36/86/128 39/87/129
f 38/88/130 39/89/131 40/90/132
f 40/91/133 39/92/134 41/93/135
f 40/94/136 41/95/137 42/96/138
f 30/97/139 38/98/140 32/99/141
f 32/100/142 38/101/143 40/102/144
f 32/103/145 40/104/146 34/105/147
f 34/106/148 40/107/149 42/108/150
f 42/109/151 41/110/152 34/111/153
f 34/112/154 41/113/155 33/114/156
f 41/115/157 39/116/158 33/117/159
f 33/118/160 39/119/161 31/120/162
f 39/121/163 36/122/164 31/123/165
f 31/124/166 36/125/167 29/126/168
f 36/127/169 35/128/170 29/129/171
f 29/130/172 35/131/173 27/132/174
f 27/133/175 35/134/176 28/135/177
f 28/136/178 35/137/179 37/138/180
f 28/139/181 37/140/182 30/141/183
f 30/142/184 37/143/185 38/144/186
f 15/145/187 43/146/188 16/147/189
f 15/145/190 44/148/191 43/146/192
f 43/146/193 44/148/194 45/149/195
f 43/146/196 45/149/197 46/150/198
f 43/146/199 46/150/200 47/151/201
f 43/146/202 47/151/203 16/147/204
f 47/151/205 48/152/206 16/147/207
f 47/151/208 46/150/209 49/153/210
f 49/153/211 50/154/212 47/151/213
f 47/151/214 50/154/215 48/152/216
f 16/147/217 48/152/218 12/155/219
f 12/155/220 48/152/221 1/156/222
f 1/156/223 48/152/224 2/157/225
f 50/154/226 2/157/227 48/152/228
f 13/158/229 11/159/230 50/154/231
f 50/154/232 18/160/233 13/158/234
f 49/153/235 18/160/236 50/154/237
f 6/161/238 2/157/239 50/154/240
f 50/154/241 11/159/242 6/161/243
f 49/153/244 46/150/245 18/160/246
f 45/149/247 51/162/248 46/150/249
f 46/150/250 51/162/251 17/163/252
f 46/150/253 17/163/254 18/160/255
f 45/149/256 15/164/257 17/165/258
f 45/149/259 44/148/260 15/164/261
f 45/149/262 17/165/263 51/162/264
